<?xml version="1.0" encoding="utf-8"?>
<!-- Generator: Adobe Illustrator 26.5.2, SVG Export Plug-In . SVG Version: 6.00 Build 0)  -->
<svg version="1.1" id="Layer_1" xmlns="http://www.w3.org/2000/svg" xmlns:xlink="http://www.w3.org/1999/xlink" x="0px" y="0px"
	 viewBox="0 0 115.5 115.5" style="enable-background:new 0 0 115.5 115.5;" xml:space="preserve">
<style type="text/css">
	.st0{fill:#18123A;}
	.st1{fill:#EF3B39;}
	.st2{fill:#FFFFFF;}
</style>
<path class="st0" d="M115.5,0h-14v0.1c0,9.7-7.9,17.6-17.6,17.6c-1.4,0-2.7-0.2-4-0.5c-1.1-0.2-2.1-0.6-3.1-1
	c-3.1,3.6-5.7,7.7-7.5,12.2c11.7,4.6,20,16,20,29.3c0,17.4-14.1,31.5-31.5,31.5c-0.5,0-1,0-1.5,0c-3.9,10.8-11.2,20-20.7,26.3h80
	C115.5,115.5,115.5,0,115.5,0z"/>
<circle class="st1" cx="57.8" cy="57.8" r="24.5"/>
<path class="st0" d="M49.2,88.1c-13.2-3.8-23-15.9-23-30.3c0-17.4,14.1-31.5,31.5-31.5c1.6,0,3.2,0.1,4.8,0.4
	c2.1-5.3,5-10.1,8.6-14.4c-3-3.2-4.8-7.4-4.8-12.1V0.1H0v115.5h18.9C32.7,111.6,44,101.4,49.2,88.1z"/>
<path class="st1" d="M83.9,10.7c5.9,0,10.6-4.8,10.6-10.6V0H73.3v0.1C73.3,6,78.1,10.7,83.9,10.7z"/>
<path class="st2" d="M56.2,89.2c0.5,0,1,0,1.5,0c17.4,0,31.5-14.1,31.5-31.5c0-13.3-8.3-24.7-20-29.3c1.9-4.5,4.4-8.6,7.5-12.2
	c1,0.4,2,0.8,3.1,1c1.3,0.3,2.6,0.5,4,0.5c9.7,0,17.6-7.9,17.6-17.6V0h-7v0.1c0,5.9-4.8,10.6-10.6,10.6S73.3,6,73.3,0.1V0h-7v0.1
	c0,4.7,1.8,8.9,4.8,12.1c-3.6,4.3-6.5,9.2-8.6,14.4c-1.6-0.2-3.2-0.4-4.8-0.4c-17.4,0-31.5,14.1-31.5,31.5
	c0,14.4,9.7,26.6,22.9,30.3c-5.2,13.3-16.4,23.6-30.3,27.4h16.7C45,109.3,52.3,100.1,56.2,89.2z M33.2,57.8
	c0-13.5,11-24.5,24.5-24.5s24.5,11,24.5,24.5s-11,24.5-24.5,24.5S33.2,71.3,33.2,57.8z"/>
</svg>
