<?xml version="1.0" encoding="utf-8"?>
<!-- Generator: Adobe Illustrator 26.5.2, SVG Export Plug-In . SVG Version: 6.00 Build 0)  -->
<svg version="1.1" id="Layer_1" xmlns="http://www.w3.org/2000/svg" xmlns:xlink="http://www.w3.org/1999/xlink" x="0px" y="0px"
	 viewBox="0 0 116 116" style="enable-background:new 0 0 116 116;" xml:space="preserve">
<style type="text/css">
	.st0{fill:#18123A;}
	.st1{fill:#EF3B39;}
	.st2{fill:#FFFFFF;}
</style>
<g>
	<g>
		<g>
			<path class="st0" d="M29.1,108.3c9.6-4.6,17.2-12.6,21-22.6c-12.1-3.4-21-14.5-21-27.7c0-15.9,12.9-28.8,28.8-28.8
				c1.5,0,2.9,0.1,4.4,0.3c1.9-4.8,4.6-9.3,7.9-13.2c-2.7-2.9-4.4-6.8-4.4-11c0-1.6,0.2-3.2,0.7-4.7C63.7,0.2,60.9,0,58,0
				C26,0,0,26,0,58C0,79.5,11.7,98.3,29.1,108.3z"/>
			<path class="st1" d="M81.9,15c3.7,0,6.9-2.1,8.5-5.1c-5.3-3.6-11.3-6.3-17.6-8c-0.4,1.1-0.6,2.2-0.6,3.4
				C72.2,10.6,76.6,15,81.9,15z"/>
			<path class="st0" d="M95.6,13.8c-2.9,4.5-7.9,7.6-13.6,7.6c-1.3,0-2.5-0.2-3.7-0.4c-1-0.2-1.9-0.5-2.8-0.9
				c-2.8,3.3-5.2,7.1-6.9,11.2C79.2,35.4,86.8,45.8,86.8,58c0,15.9-12.9,28.8-28.8,28.8c-0.5,0-0.9,0-1.4,0
				c-3.8,10.5-11,19.3-20.4,25c6.7,2.7,14.1,4.3,21.8,4.3c32,0,58-26,58-58C116,40.3,108.1,24.5,95.6,13.8z"/>
			<circle class="st1" cx="58" cy="58" r="22.4"/>
		</g>
		<path class="st2" d="M78.3,21c1.2,0.3,2.4,0.4,3.7,0.4c5.7,0,10.8-3,13.6-7.6c-1.6-1.4-3.3-2.7-5.1-3.9c-1.7,3-4.9,5.1-8.5,5.1
			c-5.4,0-9.7-4.4-9.7-9.7c0-1.2,0.2-2.3,0.6-3.4c-2.1-0.5-4.2-1-6.3-1.3c-0.4,1.5-0.7,3-0.7,4.7c0,4.3,1.7,8.2,4.4,11
			c-3.3,3.9-5.9,8.4-7.9,13.2c-1.4-0.2-2.9-0.3-4.4-0.3c-15.9,0-28.8,12.9-28.8,28.8c0,13.2,8.9,24.3,21,27.7
			c-3.9,9.9-11.5,18-21,22.6c2.3,1.3,4.6,2.5,7.1,3.4c9.4-5.7,16.7-14.5,20.4-25c0.5,0,0.9,0,1.4,0c15.9,0,28.8-12.9,28.8-28.8
			c0-12.2-7.6-22.6-18.2-26.8c1.7-4.1,4-7.9,6.9-11.2C76.4,20.4,77.3,20.7,78.3,21z M80.4,58c0,12.4-10.1,22.4-22.4,22.4
			c-12.4,0-22.4-10.1-22.4-22.4c0-12.4,10.1-22.4,22.4-22.4C70.4,35.6,80.4,45.6,80.4,58z"/>
	</g>
</g>
</svg>
