<svg enable-background="new 0 0 437.4 209.6" viewBox="0 0 437.4 209.6" xmlns="http://www.w3.org/2000/svg"><g fill="#fff"><path d="m146.5 77.2c-4.8-3-10.3-4.5-16.3-4.5-5.7 0-11.1 1.5-16.1 4.4-4.9 2.9-8.9 6.8-11.8 11.7s-4.4 10.3-4.4 16.1c0 5.7 1.5 11.1 4.5 15.9 3 4.9 6.9 8.7 11.9 11.7 4.9 2.9 10.2 4.3 16 4.3 8.1 0 14.7-2.6 21.5-8.4.5-.5.9-1.1.9-1.8 0-.6-.2-1.1-.5-1.5l-1.4-1.8-.1-.1c-.3-.3-.7-.6-1.4-.6-.6 0-1.3.2-1.7.6-1.9 1.6-3.5 2.8-4.8 3.6-1.8 1.2-5.8 3.2-12.6 3.2-.1 0-.3 0-.4 0-12.3 0-23.5-10.3-24.5-22.5h53c2.2 0 3.5-1.2 3.5-3.3 0-5.3-1.4-10.4-4-15.3-2.8-4.8-6.6-8.8-11.3-11.7zm8.1 23.2h-49.1c2-11.7 13-21.2 24.5-21h.4c13.1 0 22.1 10.6 24.2 21z"/><path d="m95.1 128.1h-36.4v-62.4c0-1.5-.8-2.4-2.2-2.4h-3.1c-1.3 0-2.2 1-2.2 2.4v67.4c0 1.5.8 2.3 2.2 2.3h41.7c1.5 0 2.5-.9 2.5-2.3v-2.8c0-1.4-.9-2.2-2.5-2.2z"/><path d="m204 136.6c5.7 0 11.1-1.5 16-4.3 4.9-2.9 8.8-6.7 11.7-11.7 2.9-4.9 4.3-10.3 4.3-16s-1.5-11.1-4.3-16c-2.9-4.9-6.7-8.8-11.7-11.7-4.9-2.9-10.2-4.3-16-4.3-9.9 0-19.2 4.8-24.4 12.3v-9.4c0-.6-.1-1.1-.4-1.5-.4-.5-1-.8-1.9-.8h-2.7c-1.5 0-2.3.8-2.3 2.3v5.7 46.5 24c0 1.3.8 2 2 2h3.4c.9 0 1.6-.7 1.6-1.6v-17.1-11c5.8 7.9 15 12.6 24.7 12.6zm-17.4-14c-4.9-4.9-7.7-11.5-7.5-18-.1-6.4 2.5-12.8 7.4-17.6 4.9-4.9 11.3-7.6 17.7-7.4 4.4 0 8.5 1.1 12.2 3.4s6.7 5.4 8.9 9.2c2.2 3.9 3.3 8.1 3.3 12.5.1 6.5-2.6 13-7.5 17.9-4.8 4.8-11 7.4-17.3 7.3-6.1.1-12.4-2.6-17.2-7.3z"/><path d="m241.9 80.4h7.6v42c0 6.8 4.6 12.1 11.1 12.9.7.1 1.8.2 3.5.2 2 0 3-.4 3-2.3v-2.4c0-1.8-1.3-2-2.8-2h-1.8c-2 0-3.5-.8-4.4-2.1-1-1.5-1.5-3.2-1.5-5v-41.3h10.1c1.3 0 2.3-1.4 2.3-2.6v-1.9c0-1.4-.8-2.2-2.2-2.2h-10.1v-13c0-1.5-.8-2.5-1.9-2.5-.2 0-.4 0-.6.1l-2.6.7c-1.2.4-2 .9-2 2.5v12.2h-7.6c-1.4 0-2.3.9-2.3 2.3v1.9c-.1 1.3.9 2.5 2.2 2.5z"/><path d="m379.1 106.3c-4-2.9-8.9-5-14.3-6.3-6.5-1.4-13.4-5.2-13.3-10.3 0-7.5 6.6-10.2 12.3-10.2 5.4 0 10.2 3 13 8 .7 1.3 1.5 1.9 2.4 1.9.3 0 .7-.1 1-.3l2.2-1.2c.6-.3.9-.9.9-1.7 0-.5-.1-1-.3-1.3-3.6-8.2-10.1-12.4-19.2-12.4-11.7 0-19.6 6.9-19.6 17.2 0 4.3 1.8 8 5.5 10.9 3.4 2.8 7.9 4.9 13.3 6.1 4.6 1.1 8.3 2.6 11.1 4.4 1.4.9 2.4 2.1 3.1 3.4.6 1.2.9 2.6.9 4.1.1 2.4-.8 4.5-2.6 6.3-3.1 3.2-8.4 4.7-12 4.7h-.1c-3.4 0-6.5-.8-9.1-2.5-2.6-1.6-4.2-3.8-5-6.6-.3-1.1-.8-2.2-2.2-2.2-.1 0-.2 0-.4 0-.1 0-.3 0-.5.1l-1.9.4h-.1c-1 .4-1.6 1.2-1.6 2.1 0 .2.1.7.2 1.1 2 8.6 10.2 14.3 20.6 14.3h.4c6.6 0 12.7-2.3 16.7-6.4 3.2-3.2 4.8-7.2 4.7-11.6 0-2.8-.6-5.3-1.8-7.5-1-1.5-2.4-3.2-4.3-4.5z"/></g><path d="m348.9 45.7c0-6.3-3.3-11.9-8.2-15.1-2.8-1.8-6.2-2.9-9.7-2.9-9.9 0-18 8.1-18 18 0 4.8 1.9 9.1 4.9 12.3-3.7 4.4-6.6 9.3-8.8 14.7-1.6-.2-3.2-.4-4.9-.4-17.7 0-32.1 14.4-32.1 32.1 0 14.7 9.9 27.1 23.4 30.9-6.8 17.3-23.7 29.7-43.4 29.7-16.8 0-31.6-9-39.8-22.4-2.5.5-5 .9-7.7.9 9 17 26.9 28.6 47.4 28.6 23.3 0 43.1-14.9 50.5-35.6h1.6c17.7 0 32.1-14.4 32.1-32.1 0-13.6-8.4-25.2-20.3-29.9 1.9-4.6 4.5-8.8 7.7-12.5 1 .4 2 .8 3.1 1 1.3.3 2.7.5 4.1.5 10 .2 18.1-7.9 18.1-17.8zm-44.7 83.8c-13.8 0-25-11.2-25-25s11.2-25 25-25 25 11.2 25 25-11.2 25-25 25zm26.7-94.6c.6 0 1.3.1 1.9.2 5.1.9 9 5.3 9 10.7 0 6-4.9 10.8-10.8 10.8s-10.8-4.9-10.8-10.8c0-1.4.3-2.7.8-4 1.4-4.1 5.4-6.9 9.9-6.9z" fill="#ef3939"/></svg>